# xmcd CD database file
#
# Track frame offsets:
#	150
#	14634
#	32348
#	53425
#	75642
#	102400
#	121905
#	143070
#	162320
#	178109
#	190225
#	209652
#
# Disc length: 3043 seconds
#
# Revision: 0
# Processed by: cddbd v1.4PL0 Copyright (c) Steve Scherf et al.
# Submitted via: CDex 1.50beta10
#
DISCID=9e0be10c
DTITLE=Curley Bridges - Mr. Rock N Soul
DYEAR=2001
DGENRE=Blues
TTITLE0=Rock 'N' Soul
TTITLE1=Nobody Seems to Want Me
TTITLE2=Little Red Rooster
TTITLE3=You're the One (That I Adore)
TTITLE4=Suite: Watermelon
TTITLE5=Caledonia
TTITLE6=What Am I Living For
TTITLE7=Ya Ya
TTITLE8=Ain't That Just Like a Woman
TTITLE9=My Girl Josephine
TTITLE10=I'm Gonna Move to the Outskirts of Town
TTITLE11=Mo-Jo Re: Worked
EXTD=YEAR: 2001
EXTT0=
EXTT1=
EXTT2=
EXTT3=
EXTT4=
EXTT5=
EXTT6=
EXTT7=
EXTT8=
EXTT9=
EXTT10=
EXTT11=
PLAYORDER=
